<?xml version="1.0" encoding="UTF-8"?>
<svg width="108" height="108" viewBox="0 0 108 108" xmlns="http://www.w3.org/2000/svg">
  <!-- Background circle -->
  <circle cx="54" cy="54" r="54" fill="#000000"/>
  
  <!-- Film strip icon with rounded corners -->
  <rect x="20" y="30" width="68" height="48" rx="6" ry="6" 
        fill="none" stroke="url(#filmGradient)" stroke-width="2"/>
  
  <!-- Film perforations -->
  <rect x="20" y="34" width="4" height="4" fill="#000000"/>
  <rect x="20" y="40" width="4" height="4" fill="#000000"/>
  <rect x="20" y="46" width="4" height="4" fill="#000000"/>
  <rect x="20" y="52" width="4" height="4" fill="#000000"/>
  <rect x="20" y="58" width="4" height="4" fill="#000000"/>
  <rect x="20" y="64" width="4" height="4" fill="#000000"/>
  <rect x="20" y="70" width="4" height="4" fill="#000000"/>
  
  <rect x="84" y="34" width="4" height="4" fill="#000000"/>
  <rect x="84" y="40" width="4" height="4" fill="#000000"/>
  <rect x="84" y="46" width="4" height="4" fill="#000000"/>
  <rect x="84" y="52" width="4" height="4" fill="#000000"/>
  <rect x="84" y="58" width="4" height="4" fill="#000000"/>
  <rect x="84" y="64" width="4" height="4" fill="#000000"/>
  <rect x="84" y="70" width="4" height="4" fill="#000000"/>
  
  <!-- Play button triangle -->
  <polygon points="44,42 44,66 58,54" fill="url(#playGradient)"/>
  
  <!-- Gradients -->
  <defs>
    <linearGradient id="filmGradient" x1="0%" y1="0%" x2="100%" y2="0%">
      <stop offset="0%" style="stop-color:#0066ff;stop-opacity:1" />
      <stop offset="100%" style="stop-color:#9933ff;stop-opacity:1" />
    </linearGradient>
    <linearGradient id="playGradient" x1="0%" y1="0%" x2="100%" y2="0%">
      <stop offset="0%" style="stop-color:#00ccff;stop-opacity:1" />
      <stop offset="100%" style="stop-color:#0066cc;stop-opacity:1" />
    </linearGradient>
  </defs>
</svg>