<?xml version="1.0" encoding="UTF-8"?>
<svg width="1024" height="1024" viewBox="0 0 1024 1024" xmlns="http://www.w3.org/2000/svg">
  <!-- Background -->
  <rect width="1024" height="1024" fill="#1a1a1a"/>
  
  <!-- Film strip icon with rounded corners -->
  <rect x="200" y="300" width="624" height="424" rx="40" ry="40" 
        fill="none" stroke="url(#filmGradient)" stroke-width="8"/>
  
  <!-- Film perforations -->
  <rect x="200" y="320" width="20" height="20" fill="#1a1a1a"/>
  <rect x="200" y="360" width="20" height="20" fill="#1a1a1a"/>
  <rect x="200" y="400" width="20" height="20" fill="#1a1a1a"/>
  <rect x="200" y="440" width="20" height="20" fill="#1a1a1a"/>
  <rect x="200" y="480" width="20" height="20" fill="#1a1a1a"/>
  <rect x="200" y="520" width="20" height="20" fill="#1a1a1a"/>
  <rect x="200" y="560" width="20" height="20" fill="#1a1a1a"/>
  <rect x="200" y="600" width="20" height="20" fill="#1a1a1a"/>
  <rect x="200" y="640" width="20" height="20" fill="#1a1a1a"/>
  <rect x="200" y="680" width="20" height="20" fill="#1a1a1a"/>
  
  <rect x="804" y="320" width="20" height="20" fill="#1a1a1a"/>
  <rect x="804" y="360" width="20" height="20" fill="#1a1a1a"/>
  <rect x="804" y="400" width="20" height="20" fill="#1a1a1a"/>
  <rect x="804" y="440" width="20" height="20" fill="#1a1a1a"/>
  <rect x="804" y="480" width="20" height="20" fill="#1a1a1a"/>
  <rect x="804" y="520" width="20" height="20" fill="#1a1a1a"/>
  <rect x="804" y="560" width="20" height="20" fill="#1a1a1a"/>
  <rect x="804" y="600" width="20" height="20" fill="#1a1a1a"/>
  <rect x="804" y="640" width="20" height="20" fill="#1a1a1a"/>
  <rect x="804" y="680" width="20" height="20" fill="#1a1a1a"/>
  
  <!-- Play button triangle -->
  <polygon points="450,450 450,650 650,550" fill="url(#playGradient)"/>
  
  <!-- Gradients -->
  <defs>
    <linearGradient id="filmGradient" x1="0%" y1="0%" x2="100%" y2="0%">
      <stop offset="0%" style="stop-color:#0066ff;stop-opacity:1" />
      <stop offset="100%" style="stop-color:#9933ff;stop-opacity:1" />
    </linearGradient>
    <linearGradient id="playGradient" x1="0%" y1="0%" x2="100%" y2="0%">
      <stop offset="0%" style="stop-color:#00ccff;stop-opacity:1" />
      <stop offset="100%" style="stop-color:#0066cc;stop-opacity:1" />
    </linearGradient>
  </defs>
</svg>